

<svg width="16" height="16" viewBox="0 0 16 16" fill="none" xmlns="http://www.w3.org/2000/svg">
<path d="M5.19992 1.33331H10.7999C12.9333 1.33331 14.6666 3.06665 14.6666 5.19998V10.8C14.6666 11.8255 14.2592 12.809 13.5341 13.5341C12.8089 14.2593 11.8254 14.6666 10.7999 14.6666H5.19992C3.06659 14.6666 1.33325 12.9333 1.33325 10.8V5.19998C1.33325 4.17448 1.74063 3.19097 2.46577 2.46583C3.19091 1.74069 4.17441 1.33331 5.19992 1.33331ZM5.06659 2.66665C4.43007 2.66665 3.81962 2.9195 3.36953 3.36959C2.91944 3.81968 2.66659 4.43013 2.66659 5.06665V10.9333C2.66659 12.26 3.73992 13.3333 5.06659 13.3333H10.9333C11.5698 13.3333 12.1802 13.0805 12.6303 12.6304C13.0804 12.1803 13.3333 11.5698 13.3333 10.9333V5.06665C13.3333 3.73998 12.2599 2.66665 10.9333 2.66665H5.06659ZM11.4999 3.66665C11.7209 3.66665 11.9329 3.75444 12.0892 3.91072C12.2455 4.067 12.3333 4.27897 12.3333 4.49998C12.3333 4.72099 12.2455 4.93295 12.0892 5.08924C11.9329 5.24552 11.7209 5.33331 11.4999 5.33331C11.2789 5.33331 11.0669 5.24552 10.9107 5.08924C10.7544 4.93295 10.6666 4.72099 10.6666 4.49998C10.6666 4.27897 10.7544 4.067 10.9107 3.91072C11.0669 3.75444 11.2789 3.66665 11.4999 3.66665ZM7.99992 4.66665C8.88397 4.66665 9.73182 5.01784 10.3569 5.64296C10.9821 6.26808 11.3333 7.11592 11.3333 7.99998C11.3333 8.88403 10.9821 9.73188 10.3569 10.357C9.73182 10.9821 8.88397 11.3333 7.99992 11.3333C7.11586 11.3333 6.26802 10.9821 5.6429 10.357C5.01777 9.73188 4.66658 8.88403 4.66658 7.99998C4.66658 7.11592 5.01777 6.26808 5.6429 5.64296C6.26802 5.01784 7.11586 4.66665 7.99992 4.66665ZM7.99992 5.99998C7.46949 5.99998 6.96078 6.21069 6.5857 6.58577C6.21063 6.96084 5.99992 7.46955 5.99992 7.99998C5.99992 8.53041 6.21063 9.03912 6.5857 9.41419C6.96078 9.78927 7.46949 9.99998 7.99992 9.99998C8.53035 9.99998 9.03906 9.78927 9.41413 9.41419C9.7892 9.03912 9.99992 8.53041 9.99992 7.99998C9.99992 7.46955 9.7892 6.96084 9.41413 6.58577C9.03906 6.21069 8.53035 5.99998 7.99992 5.99998Z" fill="white"/>
</svg>
